<?xml version="1.0" encoding="utf-8"?>
<!-- Generator: Adobe Illustrator 21.1.0, SVG Export Plug-In . SVG Version: 6.00 Build 0)  -->
<svg version="1.1" id="Слой_1" xmlns="http://www.w3.org/2000/svg" xmlns:xlink="http://www.w3.org/1999/xlink" x="0px" y="0px"
	 viewBox="0 0 23 23" style="enable-background:new 0 0 23 23;" xml:space="preserve">
<style type="text/css">
	.st0{opacity:0.6;}
	.st1{fill:#FFFFFF;}
</style>
<g class="st0">
	<g>
		<path class="st1" d="M11.7,0C5.4,0,0.2,5.2,0.2,11.5C0.2,17.8,5.4,23,11.7,23c6.3,0,11.5-5.2,11.5-11.5C23.2,5.2,18,0,11.7,0
			L11.7,0z M21.5,10.2h-3.7c-0.2-3-1.4-5.9-3.4-8.2C18.1,3,21,6.2,21.5,10.2L21.5,10.2z M10.9,10.2H7.3c0.3-2.8,1.5-5.6,3.6-7.8
			V10.2z M10.9,11.8v8.9c0,0-0.1-0.1-0.1-0.1c-2.4-2.4-3.6-5.6-3.6-8.8H10.9z M12.5,11.8h3.7c-0.1,3.2-1.3,6.4-3.7,8.9V11.8z
			 M12.5,10.2V2.4c0,0,0.1,0.1,0.1,0.1c2.1,2.1,3.3,4.9,3.6,7.7H12.5z M9.1,2c-2,2.4-3.2,5.3-3.5,8.3H1.9C2.4,6.2,5.3,3,9.1,2L9.1,2
			z M1.8,11.8h3.8c0,3.3,1.2,6.6,3.4,9.2C4.9,19.8,2,16.2,1.8,11.8L1.8,11.8z M14.4,21c2.2-2.6,3.3-5.9,3.4-9.2h3.8
			C21.4,16.2,18.4,19.9,14.4,21L14.4,21z M14.4,21"/>
	</g>
</g>
</svg>
