<?xml version="1.0" encoding="utf-8"?>
<!-- Generator: Adobe Illustrator 21.1.0, SVG Export Plug-In . SVG Version: 6.00 Build 0)  -->
<svg version="1.1" id="Слой_1" xmlns="http://www.w3.org/2000/svg" xmlns:xlink="http://www.w3.org/1999/xlink" x="0px" y="0px"
	 viewBox="0 0 78 78" style="enable-background:new 0 0 78 78;" xml:space="preserve">
<style type="text/css">
	.st0{fill:#FFBD00;}
	.st1{fill:#000703;}
</style>
<g>
	<g>
		<circle class="st0" cx="39.2" cy="40.3" r="35.4"/>
		<path class="st1" d="M46.4,57.4l-0.8,0.1c-0.7,0.1-1.2,0.8-1,1.5c0.1,0.7,0.8,1.2,1.5,1l0.8-0.1c0.7-0.1,1.2-0.8,1-1.5
			C47.8,57.7,47.1,57.3,46.4,57.4L46.4,57.4z"/>
	</g>
	<g>
		<path d="M36.8,10.6c0.6-0.2,0.9-0.7,0.9-1.3V2.6h2.6v6.8c0,0.6,0.4,1.1,0.9,1.3c4.1,1.2,6.4,5.5,5.2,9.6c-0.2,0.7-0.5,1.4-1,2.1
			c-0.7,1-1.6,1.9-2.7,2.5c-0.4,0.2-0.6,0.6-0.7,1L41.7,31h-5.3L36,25.9c0-0.4-0.3-0.8-0.7-1c-1.1-0.6-2-1.4-2.7-2.5
			c-2.4-3.5-1.5-8.4,2.1-10.8C35.3,11.2,36,10.9,36.8,10.6L36.8,10.6z M54,49.2l-1.1,0.6L52,50.1l-1.1,0.5L49.9,51l-1.2,0.4
			l-0.9,0.3L46.5,52l-0.9,0.2l-1.3,0.2l-0.9,0.1c-0.5,0.1-1,0.1-1.5,0.2l-0.7,0.1c-0.7,0-1.5,0.1-2.2,0.1c-0.7,0-1.5,0-2.2-0.1
			L36,52.7c-0.5,0-1-0.1-1.5-0.2l-0.9-0.1l-1.3-0.2L31.4,52l-1.3-0.3l-0.9-0.3L28,51l-0.9-0.3L26,50.1l-0.9-0.4l-1.1-0.6l-0.9-0.5
			l-0.5-0.3l11.3-15.9c0,0.1,0,0.1,0.1,0.2c0,0.1,0.1,0.3,0.2,0.4l0.1,0.1c0.1,0.1,0.2,0.1,0.3,0.2l0.1,0.1c0.2,0.1,0.3,0.1,0.5,0.1
			h7.7c0.2,0,0.3,0,0.5-0.1l0.1-0.1c0.1,0,0.2-0.1,0.3-0.2l0.1-0.1c0.1-0.1,0.2-0.2,0.2-0.4c0-0.1,0-0.1,0.1-0.2l11.2,15.9l-0.5,0.3
			L54,49.2z M2.9,66.7l28.7-41.4l0.1,0.1c0.2,0.2,0.4,0.3,0.5,0.5l0.3,0.3c0.3,0.2,0.6,0.5,0.9,0.7l0.1,1.8l-0.9,1.2l-15,21.3
			l-0.9,1.3l0,0L2.9,72.1V66.7z M41.4,60.6 M41.3,58c-2.6,0-1.5,0-2.3,0c-6.8,0-13.5-1.8-19.4-5.4l1.5-2.1l0.6,0.3l1,0.5l1.2,0.6
			l1,0.5l1.3,0.5l1,0.4l1.3,0.4l1,0.3c0.4,0.1,0.9,0.2,1.3,0.3l1,0.2c0.5,0.1,1,0.2,1.4,0.3l1,0.2c0.5,0.1,1.1,0.1,1.6,0.2l0.8,0.1
			c0.8,0,1.6,0.1,2.4,0.1c0.8,0,1.6,0,2.4-0.1l0.8-0.1c0.5,0,1.1-0.1,1.6-0.2l0.9-0.2c0.5-0.1,1-0.2,1.4-0.3l1-0.2
			c0.5-0.1,0.9-0.2,1.3-0.3l1-0.3l1.3-0.4l1-0.4l1.3-0.5l1-0.5l1.2-0.6l1-0.5l0.6-0.3l1.6,2.1c-3.7,2.3-5.7,3.1-8.2,3.8
			c-1.7,0.5-0.9,2.9,0.6,2.4c1.5-0.4,5.4-1.9,9.1-4.2l15.6,22.1c0.4,0.6,1.2,0.7,1.8,0.3c0.3-0.2,0.6-0.6,0.6-1.1v-9.9
			c0-0.3-0.1-0.5-0.2-0.7L48.1,23.1c2.8-5,1-11.3-4-14c-0.4-0.2-0.7-0.4-1.1-0.5V1.3c0-0.7-0.6-1.3-1.3-1.3h-5.2
			c-0.7,0-1.3,0.6-1.3,1.3v7.2c-5.3,2.1-7.8,8.2-5.7,13.4c0.2,0.4,0.3,0.8,0.5,1.1L0.6,65.5c-0.2,0.2-0.2,0.5-0.2,0.7v9.9
			c0,0.7,0.6,1.3,1.3,1.3c0.4,0,0.8-0.2,1.1-0.6l15.6-22.1c7.2,4.4,16,6.6,23.2,5.8C43.6,60.5,43,57.9,41.3,58z M75.2,72.1
			L61.2,52.3l0,0L60.4,51l-15-21.3l-0.9-1.2l0.1-1.7l0,0c0.3-0.2,0.6-0.4,0.9-0.7l0.3-0.2c0.2-0.2,0.4-0.3,0.6-0.5l0.1-0.1
			l28.8,41.3V72.1z"/>
	</g>
</g>
</svg>
