<?xml version="1.0" encoding="utf-8"?>
<!-- Generator: Adobe Illustrator 21.1.0, SVG Export Plug-In . SVG Version: 6.00 Build 0)  -->
<svg version="1.1" id="Слой_1" xmlns="http://www.w3.org/2000/svg" xmlns:xlink="http://www.w3.org/1999/xlink" x="0px" y="0px"
	 viewBox="0 0 74 71" style="enable-background:new 0 0 74 71;" xml:space="preserve">
<style type="text/css">
	.st0{fill:#FFBD00;}
	.st1{clip-path:url(#SVGID_1_);fill:#000703;}
	.st2{fill:#000703;}
</style>
<g>
	<circle class="st0" cx="36.8" cy="35.7" r="35.4"/>
	<g>
		<g>
			<defs>
				<rect id="SVGID_9_" x="-0.2" y="7.2" width="74" height="55"/>
			</defs>
			<clipPath id="SVGID_1_">
				<use xlink:href="#SVGID_9_"  style="overflow:visible;"/>
			</clipPath>
			<path class="st1" d="M32.4,45.1h8.8v3.6h-8.8V45.1L32.4,45.1z M6.9,42.1L2.7,38V20.3c0-1.3,1-2.3,2.3-2.3h63.4
				c1.3,0,2.3,1,2.3,2.3v17.5l-4.6,4.7c-0.6,0.6-0.6,1.5,0,2.1c0.3,0.3,0.7,0.4,1,0.4c0.4,0,0.8-0.1,1.1-0.4l2.5-2.6v14.8
				c0,1.3-1,2.3-2.3,2.3H5.1c-1.3,0-2.3-1-2.3-2.3V42.1l2.5,2.5c0.3,0.3,0.6,0.4,1,0.4h23.1v5c0,0.8,0.7,1.5,1.5,1.5h11.8
				c0.8,0,1.5-0.7,1.5-1.5v-5h12.1c0.8,0,1.5-0.7,1.5-1.5c0-0.8-0.7-1.5-1.5-1.5H6.9L6.9,42.1L6.9,42.1z M24.1,13.2c0-1.7,1.4-3,3-3
				h19.3c1.7,0,3,1.4,3,3V15H24.1V13.2L24.1,13.2z M68.5,15H52.4v-1.9c0-3.3-2.7-6-6-6H27.1c-3.3,0-6,2.7-6,6V15H5.1
				c-2.9,0-5.3,2.4-5.3,5.3v36.6c0,2.9,2.4,5.3,5.3,5.3h63.4c2.9,0,5.3-2.4,5.3-5.3V20.3C73.8,17.4,71.4,15,68.5,15L68.5,15z"/>
		</g>
		<path class="st2" d="M62,42.1h-0.9c-0.8,0-1.5,0.7-1.5,1.5c0,0.8,0.7,1.5,1.5,1.5H62c0.8,0,1.5-0.7,1.5-1.5
			C63.5,42.8,62.8,42.1,62,42.1L62,42.1z"/>
	</g>
</g>
</svg>
