<?xml version="1.0" encoding="utf-8"?>
<!-- Generator: Adobe Illustrator 21.1.0, SVG Export Plug-In . SVG Version: 6.00 Build 0)  -->
<svg version="1.1" id="Слой_1" xmlns="http://www.w3.org/2000/svg" xmlns:xlink="http://www.w3.org/1999/xlink" x="0px" y="0px"
	 viewBox="0 0 72 79" style="enable-background:new 0 0 72 79;" xml:space="preserve">
<style type="text/css">
	.st0{fill:#FFBD00;}
	.st1{fill:none;}
	.st2{fill:#000703;}
</style>
<g>
	<circle class="st0" cx="36.2" cy="40.9" r="35.4"/>
	<g>
		<path class="st1" d="M32.8,74.3c0.8,0.8,1.9,1.3,3.1,1.3v0c1.8,0,3.5-1.2,4.1-2.9h-8.2C32,73.3,32.3,73.9,32.8,74.3z"/>
		<path class="st2" d="M34.2,14 M31.2,12.8c0.2,2.2,3.1,1.5,3-0.2C34.1,11.1,33.7,6,33.7,6c0-0.7,0.2-1.4,0.7-1.9
			c0.5-0.5,1.1-0.8,1.8-0.8c1.4,0,2.5,1.1,2.5,2.5l0,0l0.1,21.6c-0.9-0.1-1.7-0.2-2.6-0.1c0,0-0.1,0-0.1,0c-0.3,0-0.7,0-1,0
			c0,0-0.2-3.2-0.3-5.3c-0.2-2-3.1-1.9-2.9,0.4c0.2,2.4,0.3,5.3,0.3,5.3c-2.6,0.6-5,1.7-7,3.6c-3,2.7-4.8,6.5-5,10.6L19.7,53
			c-0.2,4.4-4.5,9.2-7.9,13c-1.1,1.3-1.4,3.1-0.7,4.6c0.7,1.6,2.2,2.6,4,2.6h14.6c0.3,1.4,1,2.6,2,3.7c1.4,1.4,3.2,2.1,5.1,2.1
			c1.9,0,3.7-0.8,5.1-2.1c1-1,1.7-2.3,2-3.7h13.7c1.2,0,2.3-0.5,3.1-1.3c0.4-0.4,0.7-0.8,0.9-1.3c0.7-1.6,0.4-3.4-0.7-4.6
			c-3.4-3.9-7.7-8.7-7.9-13l-0.5-11.1c-0.2-4.1-2-7.9-5-10.6c-1.6-1.4-3.4-2.5-5.4-3.2L41.6,5.8c0-3-2.4-5.4-5.4-5.4l0,0
			c-1.5,0-2.9,0.6-3.9,1.7c-1,1.1-1.5,2.6-1.4,4 M36.6,76.1L36.6,76.1c-1.2,0-2.2-0.5-3.1-1.3c-0.5-0.5-0.8-1-1-1.6h8.2
			C40.2,74.9,38.5,76.1,36.6,76.1z M58.7,69.5c-0.1,0.2-0.4,0.9-1.3,0.9H15c-0.9,0-1.2-0.7-1.3-0.9c-0.1-0.2-0.3-0.9,0.2-1.5
			c3.7-4.2,8.4-9.4,8.6-14.8L23.1,42c0.2-3.1,1.4-6,3.6-8.2c0.1-0.1,0.3-0.3,0.5-0.4c1.9-1.7,4.2-2.8,6.7-3.1c0,0,0,0,0,0
			c0,0,0,0,0,0c0.6-0.1,1.2-0.1,1.8-0.1c0.1,0,0.2,0,0.3,0c0,0,0.1,0,0.1,0c0.3,0,0.6,0,0.8,0c0.4,0,0.7,0,1.1,0.1
			c0.6,0.1,1.1,0.2,1.8,0.3c0,0,0,0,0,0c1.9,0.5,3.7,1.4,5.2,2.8c2.5,2.2,3.9,5.3,4.1,8.6l0.5,11.1c0.3,5.4,4.9,10.6,8.6,14.8
			C59,68.6,58.8,69.3,58.7,69.5z"/>
		<path class="st2" d="M31.6,17.9c0,0.8,0.7,1.4,1.5,1.4c0.8,0,1.4-0.7,1.4-1.5l0-0.9c0-0.8-0.7-1.4-1.5-1.4c-0.8,0-1.4,0.7-1.4,1.5
			L31.6,17.9z"/>
	</g>
</g>
</svg>
