<?xml version="1.0" encoding="utf-8"?>
<!-- Generator: Adobe Illustrator 21.1.0, SVG Export Plug-In . SVG Version: 6.00 Build 0)  -->
<svg version="1.1" id="Слой_1" xmlns="http://www.w3.org/2000/svg" xmlns:xlink="http://www.w3.org/1999/xlink" x="0px" y="0px"
	 viewBox="0 0 28 28" style="enable-background:new 0 0 28 28;" xml:space="preserve">
<g>
	<path d="M7.2,20.2c2.2,0.2,4.4,0.2,6.6,0.2c2.2,0,4.4,0,6.6-0.2c0.9-0.1,1.7-0.8,1.9-1.7c0.3-1.3,0.3-2.8,0.3-4.2
		c0-1.4,0-2.8-0.3-4.2c-0.2-0.9-1-1.6-1.9-1.7c-2.2-0.2-4.4-0.2-6.6-0.2c-2.2,0-4.4,0-6.6,0.2c-0.9,0.1-1.7,0.8-1.9,1.7
		C5,11.5,5,13,5,14.3c0,1.4,0,2.8,0.3,4.2C5.6,19.4,6.3,20.1,7.2,20.2L7.2,20.2z M11.6,11.3c1.9,1,3.7,1.9,5.6,2.9
		c-1.9,1-3.7,1.9-5.6,2.9V11.3z M11.6,11.3"/>
	<path d="M0.3,0.8v27.1h27.1V0.8H0.3z M25.7,26.2H2V2.5h23.7V26.2z M25.7,26.2"/>
</g>
</svg>
